Coordinates
version=1
nRows=37
nColumns=38
inDegrees=no

Units are S.I. units (second, meters, Newtons, ...)
If the header above contains a line with 'inDegrees', this indicates whether rotational values are in degrees (yes) or radians (no).

endheader
time	pelvis_tilt	pelvis_list	pelvis_rotation	pelvis_tx	pelvis_ty	pelvis_tz	hip_flexion_r	hip_adduction_r	hip_rotation_r	knee_angle_r	ankle_angle_r	subtalar_angle_r	mtp_angle_r	hip_flexion_l	hip_adduction_l	hip_rotation_l	knee_angle_l	ankle_angle_l	subtalar_angle_l	mtp_angle_l	lumbar_extension	lumbar_bending	lumbar_rotation	arm_flex_r	arm_add_r	arm_rot_r	elbow_flex_r	pro_sup_r	wrist_flex_r	wrist_dev_r	arm_flex_l	arm_add_l	arm_rot_l	elbow_flex_l	pro_sup_l	wrist_flex_l	wrist_dev_l
1.76	-2.50057	1.4348	-2.34294	0.568034	1.44989	0.937466	-0.126041	-0.191236	-0.0362166	0.825747	0.0331961	0	0	0.314668	0.0180903	-0.367771	0.433845	0.0221784	0	0	-0.159381	-0.170719	0.059047	-0.297216	-0.0265719	-0.545847	0.445012	1.09081	0	0	-0.170666	-0.411453	0.641691	0.612571	0.412914	0	0
1.77	-2.46808	1.43132	-2.37022	0.565598	1.46058	0.937836	-0.0927112	-0.199597	-0.0312348	0.891333	-0.0140558	0	0	0.310055	0.0262682	-0.366413	0.445572	0.0216285	0	0	-0.15744	-0.177195	0.0552633	-0.301058	-0.024307	-0.553116	0.4428	1.09519	0	0	-0.175609	-0.417049	0.644945	0.619501	0.408077	0	0
1.78	-2.43232	1.42782	-2.40129	0.563109	1.47101	0.938062	-0.0569716	-0.208114	-0.0254168	0.956055	-0.0644825	0	0	0.303403	0.0359722	-0.366555	0.45214	0.0229588	0	0	-0.155251	-0.183715	0.0520431	-0.305421	-0.0224549	-0.56117	0.44348	1.09955	0	0	-0.180158	-0.423084	0.648815	0.627453	0.403706	0	0
1.79	-2.39936	1.42352	-2.4304	0.56061	1.48112	0.938304	-0.0211216	-0.216998	-0.0191476	1.01799	-0.114863	0	0	0.293673	0.0473093	-0.367491	0.453577	0.0258526	0	0	-0.154177	-0.190371	0.0491316	-0.309762	-0.0207634	-0.569779	0.447123	1.10482	0	0	-0.183763	-0.428667	0.652156	0.634564	0.399687	0	0
1.8	-2.37356	1.41855	-2.45329	0.558187	1.49095	0.9387	0.0133446	-0.225509	-0.0124939	1.07574	-0.165226	0	0	0.280835	0.0595926	-0.368186	0.450402	0.0290516	0	0	-0.154344	-0.1969	0.0461871	-0.313163	-0.0195293	-0.577757	0.451895	1.11061	0	0	-0.187136	-0.433379	0.652661	0.641067	0.395664	0	0
1.81	-2.35741	1.41311	-2.46726	0.55584	1.50049	0.939379	0.0456467	-0.233119	-0.0055783	1.12863	-0.215174	0	0	0.265354	0.0723303	-0.367314	0.443837	0.0318372	0	0	-0.15604	-0.202933	0.0429928	-0.314803	-0.0192503	-0.583775	0.455676	1.11743	0	0	-0.190137	-0.437261	0.650895	0.646649	0.39205	0	0
1.82	-2.35225	1.40752	-2.4705	0.553606	1.50975	0.940406	0.0747562	-0.238618	0.00157555	1.1758	-0.261829	0	0	0.247875	0.0846872	-0.363971	0.435682	0.0346073	0	0	-0.159643	-0.208031	0.0392513	-0.314346	-0.0197457	-0.588787	0.457518	1.12594	0	0	-0.192579	-0.440521	0.647455	0.651306	0.389047	0	0
1.83	-2.35805	1.40246	-2.46261	0.551479	1.51877	0.94176	0.100804	-0.241009	0.00877282	1.2184	-0.294477	0	0	0.229113	0.095587	-0.358335	0.42711	0.0379885	0	0	-0.164796	-0.211483	0.0340721	-0.311911	-0.0209056	-0.592405	0.45751	1.13374	0	0	-0.194715	-0.442942	0.642954	0.654339	0.387347	0	0
1.84	-2.37563	1.39765	-2.44296	0.549508	1.52764	0.943482	0.123784	-0.240297	0.0159825	1.25811	-0.301339	0	0	0.207603	0.105021	-0.350968	0.416344	0.0414123	0	0	-0.171501	-0.213393	0.0281845	-0.306994	-0.0219055	-0.599944	0.453815	1.1492	0	0	-0.196252	-0.444023	0.636364	0.655051	0.387299	0	0
1.85	-2.40312	1.39471	-2.4124	0.547623	1.53629	0.945385	0.14523	-0.235592	0.0215269	1.29432	-0.286544	0	0	0.186394	0.110593	-0.343687	0.407098	0.0460392	0	0	-0.178608	-0.212294	0.0214437	-0.30187	-0.0232496	-0.603409	0.449587	1.15771	0	0	-0.196485	-0.444555	0.631316	0.653994	0.389026	0	0
1.86	-2.43675	1.39288	-2.3751	0.545795	1.5448	0.947435	0.165025	-0.228504	0.0251602	1.32504	-0.261159	0	0	0.164791	0.113716	-0.336468	0.397418	0.0507787	0	0	-0.185908	-0.209059	0.0144672	-0.296745	-0.0245846	-0.60638	0.445451	1.16438	0	0	-0.195481	-0.445066	0.628915	0.652131	0.391403	0	0
1.87	-2.47325	1.3924	-2.33425	0.543966	1.55313	0.949511	0.184293	-0.219512	0.0269745	1.35018	-0.233473	0	0	0.144285	0.114575	-0.329373	0.3883	0.0555422	0	0	-0.192728	-0.203952	0.0069764	-0.291454	-0.0258753	-0.609315	0.4408	1.16996	0	0	-0.193663	-0.445773	0.628847	0.650546	0.393221	0	0
1.88	-2.51026	1.39305	-2.29233	0.542079	1.5612	0.951528	0.204003	-0.209296	0.0279181	1.37019	-0.209228	0	0	0.125123	0.114135	-0.321377	0.379109	0.0600291	0	0	-0.198911	-0.197498	-0.000598146	-0.286216	-0.0269422	-0.612788	0.436309	1.17495	0	0	-0.190674	-0.446871	0.631695	0.649567	0.393694	0	0
1.89	-2.54692	1.39421	-2.25027	0.540122	1.56915	0.953473	0.223612	-0.198695	0.0284174	1.38501	-0.19021	0	0	0.106454	0.113337	-0.312747	0.368938	0.0641035	0	0	-0.204516	-0.190329	-0.0083999	-0.281755	-0.0277597	-0.616275	0.433216	1.18031	0	0	-0.187425	-0.447933	0.633787	0.649546	0.393394	0	0
1.9	-2.58372	1.39519	-2.20815	0.538223	1.57711	0.955366	0.242263	-0.188022	0.0290224	1.39462	-0.176107	0	0	0.0871394	0.112504	-0.304439	0.3572	0.0677851	0	0	-0.209685	-0.183051	-0.0158613	-0.277853	-0.0278589	-0.622168	0.431111	1.18792	0	0	-0.18424	-0.449213	0.635861	0.650196	0.393791	0	0
1.91	-2.62052	1.39611	-2.16616	0.536403	1.58488	0.95716	0.260622	-0.177123	0.0301111	1.39975	-0.166351	0	0	0.0680858	0.111354	-0.296461	0.345072	0.0710612	0	0	-0.214957	-0.175718	-0.0231809	-0.273883	-0.0279069	-0.626867	0.429925	1.19467	0	0	-0.180736	-0.450587	0.636942	0.65144	0.395355	0	0
1.92	-2.65711	1.39661	-2.12386	0.534587	1.59263	0.958874	0.277575	-0.166925	0.0304874	1.40021	-0.159834	0	0	0.0485906	0.110164	-0.288314	0.332287	0.0738427	0	0	-0.220412	-0.168526	-0.0310865	-0.270125	-0.0280745	-0.629031	0.428755	1.20045	0	0	-0.177626	-0.452186	0.636416	0.653697	0.39791	0	0
1.93	-2.69446	1.39672	-2.08065	0.532792	1.6004	0.960509	0.292972	-0.157299	0.0302903	1.39624	-0.15553	0	0	0.0280335	0.108834	-0.280325	0.317826	0.0758687	0	0	-0.225936	-0.161199	-0.0392147	-0.267304	-0.027923	-0.630635	0.430045	1.20494	0	0	-0.1748	-0.453635	0.634752	0.656382	0.401175	0	0
1.94	-2.73171	1.3965	-2.03787	0.531002	1.60817	0.962028	0.307069	-0.148469	0.0297838	1.3882	-0.150941	0	0	0.0068235	0.107393	-0.272865	0.302124	0.077046	0	0	-0.231342	-0.153809	-0.0470601	-0.264741	-0.027861	-0.632045	0.432264	1.20795	0	0	-0.171826	-0.454572	0.633748	0.657996	0.406172	0	0
1.95	-2.76869	1.39603	-1.99516	0.529195	1.6159	0.963385	0.31988	-0.140416	0.0284476	1.37649	-0.145028	0	0	-0.0137965	0.105347	-0.266329	0.287375	0.0780899	0	0	-0.236801	-0.146415	-0.0550933	-0.262088	-0.0278081	-0.632905	0.434829	1.21154	0	0	-0.169116	-0.455232	0.630732	0.660126	0.412669	0	0
1.96	-2.80401	1.39543	-1.95346	0.52736	1.62357	0.964583	0.331562	-0.133472	0.0259694	1.36152	-0.137282	0	0	-0.0331601	0.102874	-0.259885	0.2744	0.0792242	0	0	-0.24225	-0.139135	-0.0636287	-0.259355	-0.0276746	-0.633492	0.438259	1.21601	0	0	-0.166039	-0.455787	0.627004	0.662548	0.418401	0	0
1.97	-2.83706	1.39487	-1.9135	0.525526	1.63117	0.965625	0.342395	-0.127614	0.0225736	1.34349	-0.127767	0	0	-0.0514751	0.100311	-0.25257	0.26241	0.0800393	0	0	-0.247377	-0.132008	-0.0724464	-0.256465	-0.0274894	-0.634177	0.442087	1.22159	0	0	-0.162274	-0.456259	0.623457	0.664739	0.422814	0	0
1.98	-2.86695	1.39454	-1.87658	0.523722	1.6387	0.966494	0.352665	-0.122702	0.0190161	1.32241	-0.117614	0	0	-0.0684781	0.0978703	-0.244358	0.251448	0.0808543	0	0	-0.251915	-0.125252	-0.0811562	-0.253252	-0.0273132	-0.634349	0.445931	1.226	0	0	-0.157483	-0.45696	0.622959	0.666119	0.426394	0	0
1.99	-2.89425	1.3944	-1.84231	0.521947	1.64619	0.967205	0.362288	-0.118621	0.015157	1.29846	-0.107457	0	0	-0.0844915	0.0956283	-0.235826	0.240961	0.0814488	0	0	-0.255947	-0.118871	-0.0894697	-0.249687	-0.027404	-0.632431	0.448686	1.22844	0	0	-0.151537	-0.457497	0.625279	0.66555	0.431109	0	0
2	-2.91984	1.39424	-1.81006	0.520223	1.65362	0.967796	0.371078	-0.115236	0.0111965	1.27179	-0.0982715	0	0	-0.100029	0.0935259	-0.227151	0.230585	0.0817789	0	0	-0.259734	-0.112852	-0.096922	-0.246065	-0.0277256	-0.628094	0.450586	1.22831	0	0	-0.144356	-0.457312	0.627776	0.663404	0.435842	0	0
2.01	-2.94317	1.39402	-1.78045	0.518562	1.66102	0.968291	0.378733	-0.112438	0.007252	1.24218	-0.0901433	0	0	-0.115165	0.0916006	-0.218555	0.220547	0.0821114	0	0	-0.263355	-0.107262	-0.103416	-0.242331	-0.0278576	-0.624215	0.452665	1.22624	0	0	-0.136012	-0.456848	0.631388	0.660809	0.438848	0	0
2.02	-2.96371	1.39386	-1.75407	0.516995	1.6684	0.968675	0.385355	-0.110329	0.0030157	1.2099	-0.0834701	0	0	-0.129882	0.0899164	-0.21036	0.210687	0.0824732	0	0	-0.266672	-0.102227	-0.109035	-0.238171	-0.0282559	-0.619559	0.454049	1.22461	0	0	-0.126644	-0.456944	0.63909	0.658693	0.438461	0	0
2.03	-2.98158	1.39378	-1.73103	0.515496	1.67576	0.968924	0.39117	-0.108878	-0.00141007	1.17526	-0.0780661	0	0	-0.144143	0.0886236	-0.202972	0.201209	0.0834379	0	0	-0.269614	-0.0976927	-0.113588	-0.233847	-0.0287554	-0.614441	0.454816	1.22208	0	0	-0.116394	-0.45702	0.649297	0.656022	0.43806	0	0
2.04	-2.99772	1.39409	-1.71025	0.514079	1.68314	0.969026	0.396486	-0.10778	-0.0061119	1.13862	-0.0739554	0	0	-0.157649	0.0874034	-0.1962	0.192247	0.0849291	0	0	-0.271863	-0.093437	-0.116819	-0.229841	-0.0293423	-0.609386	0.456098	1.21882	0	0	-0.105615	-0.456325	0.658271	0.652792	0.439001	0	0
2.05	-3.01315	1.39471	-1.69087	0.512772	1.69056	0.968999	0.401005	-0.106679	-0.0111853	1.09992	-0.0703209	0	0	-0.170622	0.0860679	-0.190105	0.183578	0.0865188	0	0	-0.27349	-0.0893958	-0.119052	-0.225868	-0.0300138	-0.603626	0.456752	1.21552	0	0	-0.0949866	-0.454854	0.665057	0.649763	0.43988	0	0
2.06	-3.02774	1.39561	-1.67314	0.511564	1.69802	0.96884	0.404871	-0.10566	-0.0167068	1.05959	-0.0665006	0	0	-0.183044	0.084799	-0.184684	0.175246	0.0883294	0	0	-0.274626	-0.0856265	-0.120396	-0.221869	-0.0307076	-0.597864	0.457404	1.21246	0	0	-0.0847654	-0.452932	0.670931	0.647374	0.440797	0	0
2.07	-3.0416	1.39661	-1.65621	0.510407	1.70546	0.968573	0.407821	-0.105004	-0.0236649	1.01779	-0.0621794	0	0	-0.194308	0.0833208	-0.180165	0.16889	0.0914512	0	0	-0.2757	-0.081992	-0.121698	-0.217874	-0.031436	-0.591232	0.458111	1.20852	0	0	-0.0748817	-0.451013	0.676063	0.645792	0.442082	0	0
2.08	-3.05454	1.39749	-1.63979	0.509267	1.7129	0.968238	0.409465	-0.104871	-0.0324566	0.974521	-0.0572382	0	0	-0.204621	0.081605	-0.176056	0.164625	0.0956892	0	0	-0.276955	-0.0784354	-0.1234	-0.213481	-0.032003	-0.58471	0.458205	1.20398	0	0	-0.0653762	-0.44885	0.679995	0.64434	0.445428	0	0
2.09	-3.06651	1.39806	-1.62476	0.508212	1.72043	0.967846	0.409858	-0.104974	-0.0424332	0.930089	-0.052259	0	0	-0.215254	0.0800084	-0.172255	0.160611	0.100103	0	0	-0.278323	-0.0751304	-0.124431	-0.209417	-0.0322148	-0.580568	0.459258	1.20078	0	0	-0.0561737	-0.445949	0.681381	0.643014	0.450241	0	0
2.1	-3.07876	1.39843	-1.60994	0.507265	1.72809	0.96738	0.409174	-0.104843	-0.0535245	0.884828	-0.0481975	0	0	-0.226134	0.0782195	-0.169363	0.156968	0.104771	0	0	-0.279603	-0.0719888	-0.125072	-0.205716	-0.0323494	-0.576362	0.460337	1.19682	0	0	-0.0477088	-0.442886	0.681883	0.642175	0.455905	0	0
2.11	-3.09128	1.39859	-1.59498	0.506405	1.73588	0.966842	0.407338	-0.104534	-0.0663159	0.838951	-0.0446644	0	0	-0.237268	0.0761991	-0.166873	0.153579	0.109718	0	0	-0.280856	-0.0689116	-0.125401	-0.202544	-0.0323118	-0.57248	0.461814	1.191	0	0	-0.0399829	-0.439473	0.680143	0.641983	0.461598	0	0
2.12	-3.10418	1.39866	-1.57965	0.505621	1.74384	0.966223	0.404568	-0.104058	-0.0809588	0.793002	-0.0410691	0	0	-0.248807	0.0740559	-0.164317	0.149722	0.114245	0	0	-0.281845	-0.0657519	-0.125488	-0.200257	-0.0320932	-0.567626	0.463543	1.18369	0	0	-0.0327495	-0.435386	0.67721	0.640585	0.471329	0	0
